<?xml version="1.0" standalone="no"?>
<!DOCTYPE svg PUBLIC "-//W3C//DTD SVG 20010904//EN"
 "http://www.w3.org/TR/2001/REC-SVG-20010904/DTD/svg10.dtd">
<svg version="1.0" xmlns="http://www.w3.org/2000/svg"
 width="900.000000pt" height="900.000000pt" viewBox="0 0 900.000000 900.000000"
 preserveAspectRatio="xMidYMid meet">

<g transform="translate(0.000000,900.000000) scale(0.100000,-0.100000)"
fill="#000000" stroke="none">
<path d="M1178 8976 c-15 -13 -57 -34 -95 -46 -266 -88 -662 -396 -828 -644
-33 -49 -81 -121 -107 -160 -26 -39 -60 -101 -74 -138 -15 -37 -37 -77 -50
-89 l-24 -22 0 -3423 c0 -3081 2 -3422 15 -3428 9 -3 27 -32 41 -63 67 -156
217 -375 354 -517 146 -151 363 -315 505 -380 41 -19 78 -42 81 -50 6 -14 340
-16 3479 -16 3159 0 3474 1 3486 16 7 9 48 33 91 55 136 69 303 189 436 314
167 157 365 444 442 640 17 44 40 87 51 97 19 16 19 72 19 3333 0 3170 -1
3317 -18 3335 -10 11 -33 57 -51 102 -85 208 -232 427 -415 616 -95 99 -251
218 -382 293 -142 81 -215 119 -231 119 -25 0 -115 43 -132 63 -12 16 -250 17
-3290 17 l-3276 -1 -27 -23z m1377 -3160 c163 -45 299 -153 365 -290 44 -90
69 -210 71 -333 2 -115 6 -113 -220 -113 -224 0 -231 3 -231 83 0 197 -71 287
-224 287 -98 0 -157 -34 -203 -115 -13 -23 -17 -55 -18 -141 0 -107 1 -112 37
-185 53 -108 146 -209 341 -372 264 -221 383 -356 458 -523 44 -97 59 -179 59
-335 0 -200 -36 -323 -131 -442 -121 -153 -298 -222 -564 -220 -354 1 -560
130 -662 415 -23 62 -27 94 -31 215 -2 79 -2 153 2 166 10 41 45 48 229 46
164 -1 171 -2 194 -25 21 -21 23 -32 23 -121 0 -109 10 -155 43 -204 67 -100
230 -126 338 -54 59 39 84 102 83 210 -2 192 -80 305 -394 570 -300 253 -422
408 -481 610 -21 70 -24 100 -23 240 1 144 3 168 27 245 31 98 96 200 166 261
60 52 188 114 276 133 95 21 384 16 470 -8z m1138 -30 c9 -16 13 -270 17
-1066 l5 -1046 26 -49 c18 -35 39 -59 74 -80 43 -27 57 -30 129 -30 63 0 90 5
120 21 51 26 95 81 107 130 5 22 9 497 9 1070 0 873 2 1033 14 1050 13 17 31
19 198 24 101 3 191 1 201 -3 10 -5 22 -19 27 -33 6 -16 10 -434 10 -1073 0
-1016 -1 -1050 -20 -1127 -28 -110 -72 -194 -138 -266 -69 -74 -133 -117 -227
-151 -146 -52 -394 -60 -558 -18 -193 50 -341 179 -407 356 -49 132 -50 159
-50 1236 0 925 3 1044 23 1071 4 4 383 13 405 9 12 -2 28 -13 35 -25z m3968
24 c17 0 37 -57 58 -170 51 -281 71 -390 81 -455 6 -38 17 -101 25 -140 8 -38
24 -122 34 -185 22 -128 95 -542 156 -885 14 -77 36 -203 49 -280 14 -77 29
-160 35 -185 13 -62 51 -288 51 -309 0 -9 -6 -25 -13 -35 -13 -17 -31 -19
-213 -18 -109 0 -205 1 -211 1 -26 2 -44 52 -63 172 -11 68 -25 151 -30 184
-5 33 -18 71 -29 85 l-18 25 -251 3 c-297 3 -283 8 -301 -109 -7 -41 -18 -108
-26 -149 -8 -41 -17 -96 -20 -122 -3 -26 -14 -57 -24 -70 -18 -22 -23 -22
-207 -21 -168 1 -189 3 -201 19 -22 30 -23 22 67 494 11 58 29 157 39 220 11
63 34 194 51 290 18 96 42 236 55 310 13 74 38 214 55 310 17 96 42 236 55
310 13 74 38 212 54 305 17 94 38 208 46 255 12 68 27 122 39 142 2 3 619 14
634 11 8 -2 18 -3 23 -3z m-6337 -19 c16 -18 17 -104 18 -1302 1 -706 -2
-1293 -5 -1305 -12 -36 -44 -41 -242 -37 -153 3 -193 6 -205 19 -13 13 -15
166 -15 1315 0 1276 0 1301 19 1315 16 11 62 14 216 14 181 0 198 -2 214 -19z
m4572 0 c122 -25 207 -66 282 -136 123 -114 165 -253 166 -555 0 -312 -38
-435 -180 -569 -41 -38 -74 -75 -74 -81 0 -6 34 -43 75 -82 95 -90 137 -170
165 -316 17 -87 20 -146 20 -390 1 -260 6 -359 25 -447 4 -19 1 -37 -8 -49
-14 -19 -27 -20 -222 -18 -148 2 -213 6 -223 15 -42 34 -45 68 -52 462 -4 212
-12 394 -17 411 -42 124 -108 170 -265 184 -105 9 -122 7 -150 -18 -17 -14
-18 -51 -18 -503 0 -281 -4 -498 -9 -512 -6 -14 -20 -29 -33 -33 -13 -4 -110
-7 -217 -6 -163 1 -197 3 -210 17 -14 14 -16 137 -19 1283 -1 697 0 1281 3
1299 12 65 -6 63 453 63 369 0 428 -2 508 -19z"/>
<path d="M7302 5193 c-7 -12 -19 -68 -27 -125 -20 -132 -79 -500 -105 -648
-18 -103 -43 -263 -57 -361 -3 -23 0 -39 9 -46 21 -18 362 -20 384 -2 19 16
16 85 -11 217 -8 43 -33 194 -55 337 -22 143 -47 294 -55 335 -13 68 -35 228
-35 256 0 7 -8 22 -19 35 l-18 23 -11 -21z"/>
<path d="M5470 5424 c-51 -22 -50 -10 -50 -401 0 -443 -14 -407 154 -402 97 4
118 8 168 32 52 26 60 34 88 92 l30 63 0 213 c0 175 -3 221 -17 259 -41 111
-92 141 -251 146 -59 2 -114 1 -122 -2z"/>
</g>
</svg>
