<svg width="403" height="496" viewBox="0 0 403 496" fill="none" xmlns="http://www.w3.org/2000/svg">
<path fill-rule="evenodd" clip-rule="evenodd" d="M402.914 432.463C402.914 467.554 312.719 496 201.457 496C90.195 496 0 467.554 0 432.463C0 404.897 55.666 381.435 133.475 372.638C142.799 385.176 151.898 397.027 160.374 407.878C130.768 412.086 110.475 420.698 110.475 430.64C110.475 444.726 151.209 456.145 201.457 456.145C251.705 456.145 292.439 444.726 292.439 430.64C292.439 420.707 272.182 412.101 242.618 407.889C251.144 397.022 260.28 385.178 269.632 372.66C347.34 381.473 402.914 404.919 402.914 432.463ZM201.457 0C113.445 0 42.097 71.348 42.097 159.36C42.097 232.499 148.33 367.575 197.559 429.027C198.538 430.25 199.887 430.897 201.456 430.897C203.023 430.9 204.371 430.252 205.353 429.032C252.543 370.227 360.816 234.508 360.816 159.36C360.817 71.348 289.469 0 201.457 0ZM201.457 75.664C247.573 75.664 284.959 113.05 284.959 159.166C284.959 205.283 247.574 242.668 201.457 242.668C155.34 242.668 117.955 205.283 117.955 159.166C117.955 113.05 155.34 75.664 201.457 75.664Z" fill="#FCFCFC"/>
</svg>
