<svg width="478" height="347" viewBox="0 0 478 347" fill="none" xmlns="http://www.w3.org/2000/svg">
<path d="M427.989 0H50C36.7438 0.0150863 24.0349 5.28777 14.6613 14.6613C5.28777 24.0349 0.0150863 36.7438 0 50V296.6C0.0150863 309.856 5.28777 322.565 14.6613 331.939C24.0349 341.312 36.7438 346.585 50 346.6H427.988C441.244 346.585 453.953 341.312 463.327 331.939C472.7 322.565 477.973 309.856 477.988 296.6V50C477.973 36.7438 472.701 24.0347 463.328 14.6611C453.954 5.28746 441.245 0.0148226 427.989 0ZM339.089 173.232L457.989 79.914V288.652L339.089 173.232ZM50 20H427.988C435.942 20.009 443.567 23.1726 449.191 28.7967C454.815 34.4209 457.979 42.0463 457.988 50V54.49L265.578 205.508C258.543 211 249.873 213.98 240.948 213.972C232.023 213.965 223.358 210.971 216.332 205.468L20 54.452V50C20.009 42.0463 23.1726 34.4209 28.7967 28.7967C34.4209 23.1726 42.0463 20.009 50 20ZM142.438 173.86L20 289.055V79.684L142.438 173.86ZM427.989 326.6H50C44.8784 326.597 39.8428 325.283 35.3726 322.784C30.9023 320.284 27.1463 316.682 24.462 312.32L158.496 186.22L204.078 221.28C214.62 229.514 227.613 233.985 240.989 233.982C254.366 233.979 267.357 229.501 277.894 221.261L323.213 185.7L453.578 312.24C450.899 316.624 447.139 320.246 442.658 322.761C438.178 325.275 433.127 326.597 427.989 326.6Z" fill="black"/>
</svg>
