<svg width="384" height="256" viewBox="0 0 384 256" fill="none" xmlns="http://www.w3.org/2000/svg">
<path d="M363.733 106.667H20.2667C9.0737 106.667 0 115.74 0 126.933V129.067C0 140.26 9.0737 149.333 20.2667 149.333H363.733C374.926 149.333 384 140.26 384 129.067V126.933C384 115.74 374.926 106.667 363.733 106.667Z" fill="white"/>
<path d="M363.733 213.333H20.2667C9.0737 213.333 0 222.407 0 233.6V235.733C0 246.926 9.0737 256 20.2667 256H363.733C374.926 256 384 246.926 384 235.733V233.6C384 222.407 374.926 213.333 363.733 213.333Z" fill="white"/>
<path d="M363.733 0H20.2667C9.0737 0 0 9.07369 0 20.2667V22.4C0 33.593 9.0737 42.6667 20.2667 42.6667H363.733C374.926 42.6667 384 33.593 384 22.4V20.2667C384 9.07369 374.926 0 363.733 0Z" fill="white"/>
</svg>
