<svg width="483" height="481" viewBox="0 0 483 481" fill="none" xmlns="http://www.w3.org/2000/svg">
<path d="M361.2 318.88C356.741 314.405 351.442 310.855 345.607 308.432C339.773 306.009 333.517 304.762 327.2 304.762C320.883 304.762 314.627 306.009 308.793 308.432C302.958 310.855 297.659 314.405 293.2 318.88L270 342.08C243.878 325.502 219.677 306.076 197.84 284.16C175.97 262.281 156.549 238.085 139.92 212L163.12 188.8C167.595 184.341 171.145 179.042 173.568 173.207C175.991 167.373 177.238 161.117 177.238 154.8C177.238 148.483 175.991 142.227 173.568 136.393C171.145 130.558 167.595 125.259 163.12 120.8L117.84 75.68C113.444 71.1903 108.189 67.6303 102.39 65.2115C96.5903 62.7927 90.3637 61.5645 84.08 61.6C77.7517 61.5845 71.4828 62.8205 65.634 65.2369C59.7852 67.6533 54.472 71.2024 50 75.68L28.24 97.28C17.8683 108.431 10.1275 121.766 5.58664 136.302C1.04574 150.838 -0.179839 166.208 2 181.28C7.12 241.28 46.48 313.44 107.12 374.24C167.76 435.04 240.72 474.24 300.72 480C305.197 480.239 309.683 480.239 314.16 480C327.076 480.542 339.97 478.501 352.086 473.995C364.202 469.489 375.297 462.61 384.72 453.76L406.32 432C410.798 427.528 414.347 422.215 416.763 416.366C419.179 410.517 420.415 404.248 420.4 397.92C420.435 391.636 419.207 385.41 416.789 379.61C414.37 373.811 410.81 368.556 406.32 364.16L361.2 318.88ZM383.76 409.44L362 431.04C353.954 437.745 344.562 442.644 334.459 445.404C324.356 448.165 313.777 448.723 303.44 447.04C251.44 442.56 185.2 405.76 130.48 351.04C75.76 296.32 38.96 230.56 34 178.56C32.2746 168.223 32.8115 157.634 35.5737 147.524C38.336 137.414 43.2578 128.024 50 120L72.56 98.24C74.055 96.7571 75.8281 95.5839 77.7775 94.7877C79.7269 93.9914 81.8143 93.5878 83.92 93.6C86.0257 93.5878 88.1131 93.9914 90.0625 94.7877C92.0119 95.5839 93.785 96.7571 95.28 98.24L140.56 144C143.54 146.998 145.213 151.053 145.213 155.28C145.213 159.507 143.54 163.562 140.56 166.56L108.56 198.56C106.056 201.052 104.447 204.302 103.984 207.804C103.521 211.306 104.23 214.863 106 217.92C125.158 250.535 148.444 280.543 175.28 307.2C201.937 334.036 231.945 357.322 264.56 376.48C267.617 378.25 271.174 378.959 274.676 378.496C278.178 378.033 281.428 376.424 283.92 373.92L315.92 341.92C318.918 338.94 322.973 337.267 327.2 337.267C331.427 337.267 335.482 338.94 338.48 341.92L383.76 387.2C385.243 388.695 386.416 390.468 387.212 392.417C388.009 394.367 388.412 396.454 388.4 398.56C388.3 402.646 386.64 406.539 383.76 409.44ZM411.6 70.24C389.364 47.9195 362.93 30.2214 333.821 18.1661C304.713 6.1108 273.506 -0.0632269 242 9.20845e-08C237.757 9.20845e-08 233.687 1.68571 230.686 4.68629C227.686 7.68687 226 11.7565 226 16C226 20.2435 227.686 24.3131 230.686 27.3137C233.687 30.3143 237.757 32 242 32C269.464 31.999 296.656 37.4369 322.007 47.9997C347.358 58.5626 370.366 74.0413 389.704 93.5427C409.042 113.044 424.326 136.182 434.675 161.621C445.024 187.06 450.232 214.297 450 241.76C450 246.003 451.686 250.073 454.686 253.074C457.687 256.074 461.757 257.76 466 257.76C470.243 257.76 474.313 256.074 477.314 253.074C480.314 250.073 482 246.003 482 241.76C482.306 209.919 476.235 178.339 464.144 148.881C452.054 119.423 434.188 92.6842 411.6 70.24Z" fill="black"/>
</svg>
