<svg width="482" height="480" viewBox="0 0 482 480" fill="none" xmlns="http://www.w3.org/2000/svg">
<path d="M360.249 318.88C355.79 314.406 350.491 310.855 344.657 308.432C338.822 306.01 332.567 304.763 326.249 304.763C319.932 304.763 313.677 306.01 307.842 308.432C302.008 310.855 296.709 314.406 292.249 318.88L269.049 342.08C242.928 325.502 218.727 306.077 196.889 284.16C175.02 262.282 155.598 238.086 138.969 212L162.169 188.8C166.644 184.341 170.195 179.042 172.618 173.208C175.04 167.373 176.287 161.118 176.287 154.8C176.287 148.483 175.04 142.228 172.618 136.393C170.195 130.559 166.644 125.26 162.169 120.8L116.889 75.6805C112.493 71.1908 107.239 67.6307 101.439 65.212C95.6398 62.7932 89.4131 61.565 83.1295 61.6005C76.8012 61.585 70.5323 62.821 64.6835 65.2374C58.8347 67.6538 53.5215 71.2029 49.0495 75.6805L27.2895 97.2805C16.9178 108.432 9.17702 121.766 4.63611 136.302C0.0952115 150.839 -1.13036 166.208 1.04947 181.28C6.16947 241.28 45.5295 313.44 106.169 374.24C166.809 435.04 239.769 474.24 299.769 480C304.246 480.24 308.733 480.24 313.209 480C326.125 480.543 339.019 478.501 351.135 473.995C363.252 469.489 374.346 462.61 383.769 453.76L405.369 432C409.847 427.529 413.396 422.215 415.813 416.366C418.229 410.518 419.465 404.249 419.449 397.921C419.485 391.637 418.257 385.41 415.838 379.611C413.419 373.811 409.859 368.557 405.369 364.16L360.249 318.88ZM382.809 409.44L361.049 431.04C353.004 437.746 343.612 442.644 333.508 445.405C323.405 448.165 312.827 448.723 302.489 447.04C250.489 442.56 184.249 405.76 129.529 351.04C74.8095 296.32 38.0095 230.56 33.0495 178.56C31.324 168.223 31.8609 157.634 34.6232 147.525C37.3854 137.415 42.3073 128.024 49.0495 120L71.6095 98.2405C73.1045 96.7576 74.8776 95.5844 76.827 94.7881C78.7764 93.9919 80.8638 93.5883 82.9695 93.6005C85.0752 93.5883 87.1626 93.9919 89.112 94.7881C91.0614 95.5844 92.8344 96.7576 94.3295 98.2405L139.609 144C142.589 146.998 144.262 151.054 144.262 155.28C144.262 159.507 142.589 163.563 139.609 166.56L107.609 198.56C105.105 201.052 103.496 204.303 103.033 207.805C102.57 211.307 103.279 214.864 105.049 217.92C124.208 250.536 147.493 280.543 174.329 307.201C200.987 334.037 230.994 357.322 263.609 376.48C266.666 378.251 270.223 378.96 273.725 378.497C277.227 378.034 280.478 376.425 282.969 373.921L314.969 341.921C317.967 338.94 322.023 337.268 326.249 337.268C330.476 337.268 334.532 338.94 337.529 341.921L382.809 387.201C384.292 388.696 385.466 390.469 386.262 392.418C387.058 394.367 387.462 396.455 387.449 398.56C387.349 402.647 385.689 406.54 382.809 409.44ZM410.649 70.2405C388.414 47.92 361.979 30.2219 332.871 18.1666C303.762 6.11129 272.556 -0.0627462 241.049 0.000480744C236.806 0.000480744 232.736 1.68619 229.736 4.68677C226.735 7.68735 225.049 11.757 225.049 16.0005C225.049 20.2439 226.735 24.3136 229.736 27.3142C232.736 30.3148 236.806 32.0005 241.049 32.0005C268.513 31.9995 295.705 37.4373 321.056 48.0002C346.407 58.5631 369.416 74.0418 388.753 93.5432C408.091 113.045 423.376 136.183 433.724 161.622C444.073 187.061 449.282 214.298 449.049 241.76C449.049 246.004 450.735 250.074 453.736 253.074C456.736 256.075 460.806 257.76 465.049 257.76C469.293 257.76 473.363 256.075 476.363 253.074C479.364 250.074 481.049 246.004 481.049 241.76C481.356 209.919 475.285 178.339 463.194 148.882C451.103 119.424 433.237 92.6847 410.649 70.2405Z" fill="white"/>
</svg>
